<?xml version="1.0" encoding="UTF-8"?><svg xmlns="http://www.w3.org/2000/svg" xmlns:xlink="http://www.w3.org/1999/xlink" width="375pt" zoomAndPan="magnify" viewBox="0 0 375 374.999991" height="374.999991pt" preserveAspectRatio="xMidYMid meet" version="1.2"><defs><g/><clipPath xml:id="clip1" id="clip1"><path d="M 206.402344 61.058594 L 374.238281 61.058594 L 374.238281 202.789062 L 206.402344 202.789062 Z M 206.402344 61.058594 "/></clipPath></defs><g xml:id="surface1" id="surface1"><g style="fill:rgb(0%,0%,0%);fill-opacity:1;"><g transform="translate(1.373005, 186.193706)"><path style="stroke:none;" d="M 10.859375 0 C 15.988281 0 17.132812 -3.71875 17.132812 -5.730469 C 17.132812 -7.640625 16.109375 -11.082031 11.644531 -11.441406 C 14.882812 -11.945312 15.746094 -14.480469 15.746094 -15.667969 C 15.746094 -16.992188 15.203125 -20.109375 10.417969 -20.109375 L 1.609375 -20.109375 L 1.609375 0 Z M 3.199219 -1.769531 C 3.199219 -2.050781 3.199219 -5.914062 3.21875 -10.117188 C 3.21875 -10.71875 3.621094 -11.121094 4.222656 -11.121094 L 9.089844 -11.121094 C 13.113281 -11.121094 15.222656 -9.007812 15.222656 -5.730469 C 15.222656 -2.453125 13.113281 -0.402344 9.089844 -0.402344 L 4.261719 -0.402344 C 3.539062 -0.402344 3.199219 -0.683594 3.199219 -1.769531 Z M 3.21875 -18.742188 C 3.296875 -19.507812 3.640625 -19.707031 4.261719 -19.707031 L 9.210938 -19.707031 C 12.367188 -19.707031 14.078125 -17.980469 14.078125 -15.726562 C 14.078125 -13.453125 12.367188 -11.523438 9.210938 -11.523438 L 4.222656 -11.523438 C 3.621094 -11.523438 3.21875 -11.925781 3.21875 -12.527344 Z M 3.21875 -18.742188 "/></g></g><g style="fill:rgb(0%,0%,0%);fill-opacity:1;"><g transform="translate(27.877511, 186.193706)"><path style="stroke:none;" d="M 3.21875 0 L 3.21875 -5.652344 C 3.21875 -9.695312 8.207031 -11.90625 11.804688 -11.90625 C 13.875 -11.90625 15.484375 -11.179688 15.484375 -9.695312 L 15.484375 0 L 17.09375 0 L 17.09375 -20.109375 L 15.484375 -20.109375 L 15.484375 -11.324219 C 14.097656 -12.105469 12.347656 -12.507812 10.539062 -12.507812 C 7.804688 -12.507812 4.96875 -11.5625 3.21875 -9.53125 L 3.21875 -20.109375 L 1.609375 -20.109375 L 1.609375 0 Z M 3.21875 0 "/></g></g><g style="fill:rgb(0%,0%,0%);fill-opacity:1;"><g transform="translate(55.0254, 186.193706)"><path style="stroke:none;" d="M 11.039062 0.402344 C 16.570312 0.402344 21.097656 -3.78125 21.097656 -10.054688 C 21.097656 -16.328125 16.570312 -20.511719 11.039062 -20.511719 C 5.511719 -20.511719 1.003906 -16.328125 1.003906 -10.054688 C 1.003906 -3.78125 5.511719 0.402344 11.039062 0.402344 Z M 2.613281 -10.054688 C 2.613281 -16.089844 6.394531 -20.109375 11.039062 -20.109375 C 15.6875 -20.109375 19.488281 -16.089844 19.488281 -10.054688 C 19.488281 -4.023438 15.6875 0 11.039062 0 C 6.394531 0 2.613281 -4.023438 2.613281 -10.054688 Z M 2.613281 -10.054688 "/></g></g><g style="fill:rgb(0%,0%,0%);fill-opacity:1;"><g transform="translate(85.571151, 186.193706)"><path style="stroke:none;" d="M 11.039062 0.402344 C 16.570312 0.402344 21.097656 -3.78125 21.097656 -10.054688 C 21.097656 -16.328125 16.570312 -20.511719 11.039062 -20.511719 C 5.511719 -20.511719 1.003906 -16.328125 1.003906 -10.054688 C 1.003906 -3.78125 5.511719 0.402344 11.039062 0.402344 Z M 2.613281 -10.054688 C 2.613281 -16.089844 6.394531 -20.109375 11.039062 -20.109375 C 15.6875 -20.109375 19.488281 -16.089844 19.488281 -10.054688 C 19.488281 -4.023438 15.6875 0 11.039062 0 C 6.394531 0 2.613281 -4.023438 2.613281 -10.054688 Z M 2.613281 -10.054688 "/></g></g><g style="fill:rgb(0%,0%,0%);fill-opacity:1;"><g transform="translate(116.116896, 186.193706)"><path style="stroke:none;" d="M 3.296875 0 L 2.089844 -17.917969 C 2.070312 -18.261719 2.171875 -18.460938 2.3125 -18.460938 C 2.414062 -18.460938 2.554688 -18.359375 2.675781 -18.140625 C 2.976562 -17.636719 9.875 -4.6875 9.875 -4.6875 C 9.875 -4.6875 15.847656 -17.496094 16.1875 -18.140625 C 16.308594 -18.359375 16.429688 -18.460938 16.53125 -18.460938 C 16.671875 -18.460938 16.773438 -18.261719 16.773438 -17.917969 L 16.773438 0 L 18.460938 0 L 18.460938 -20.109375 L 16.613281 -20.109375 L 10.800781 -7.703125 C 10.660156 -7.421875 10.519531 -7.28125 10.355469 -7.28125 C 10.195312 -7.28125 10.035156 -7.421875 9.894531 -7.683594 L 3.257812 -20.109375 L 1.609375 -20.109375 L 1.609375 0 Z M 3.296875 0 "/></g></g><g style="fill:rgb(0%,0%,0%);fill-opacity:1;"><g transform="translate(144.631964, 186.193706)"><path style="stroke:none;" d="M 1.609375 0 L 3.21875 0 L 3.21875 -20.109375 L 1.609375 -20.109375 Z M 1.609375 0 "/></g></g><g style="fill:rgb(0%,0%,0%);fill-opacity:1;"><g transform="translate(150.847556, 193.167625)"><path style="stroke:none;" d="M 13.734375 0 L 13.734375 -0.457031 C 9.796875 -0.457031 9.523438 -3.707031 9.523438 -12.726562 L 9.523438 -22.476562 C 9.523438 -24.628906 10.347656 -26.503906 12.726562 -26.503906 C 15.976562 -26.503906 19.59375 -22.476562 25.179688 -22.476562 C 28.792969 -22.476562 31.039062 -24.8125 31.039062 -27.511719 L 30.578125 -27.511719 C 30.578125 -25.910156 28.933594 -24.902344 27.191406 -24.902344 C 23.164062 -24.902344 19.363281 -27.742188 14.832031 -27.742188 C 12.085938 -27.742188 10.070312 -26.277344 9.523438 -25.039062 L 9.523438 -33.050781 C 9.523438 -42.070312 9.796875 -45.320312 13.734375 -45.320312 L 13.734375 -45.777344 L 1.375 -45.777344 L 1.375 -45.320312 C 5.308594 -45.320312 5.585938 -42.070312 5.585938 -33.050781 L 5.585938 -12.726562 C 5.585938 -3.707031 5.308594 -0.457031 1.375 -0.457031 L 1.375 0 Z M 28.199219 -45.320312 C 32.136719 -45.320312 32.410156 -42.070312 32.410156 -33.050781 L 32.410156 -12.726562 C 32.410156 -3.707031 32.136719 -0.457031 28.199219 -0.457031 L 28.199219 0 L 40.558594 0 L 40.558594 -0.457031 C 36.621094 -0.457031 36.347656 -3.707031 36.347656 -12.726562 L 36.347656 -33.050781 C 36.347656 -42.070312 36.621094 -45.320312 40.558594 -45.320312 L 40.558594 -45.777344 L 28.199219 -45.777344 Z M 28.199219 -45.320312 "/></g></g><g style="fill:rgb(0%,0%,0%);fill-opacity:1;"><g transform="translate(192.779768, 193.167625)"><path style="stroke:none;" d="M 1.375 -45.320312 C 5.308594 -45.320312 5.585938 -42.070312 5.585938 -33.050781 L 5.585938 -12.726562 C 5.585938 -3.707031 5.308594 -0.457031 1.375 -0.457031 L 1.375 0 L 13.734375 0 L 13.734375 -0.457031 C 9.796875 -0.457031 9.523438 -3.707031 9.523438 -12.726562 L 9.523438 -33.050781 C 9.523438 -42.070312 9.796875 -45.320312 13.734375 -45.320312 L 13.734375 -45.777344 L 1.375 -45.777344 Z M 1.375 -45.320312 "/></g></g><g style="fill:rgb(0%,0%,0%);fill-opacity:1;"><g transform="translate(207.886351, 193.167625)"><path style="stroke:none;" d="M 1.375 -45.777344 L 1.375 -45.320312 C 5.308594 -45.320312 5.585938 -42.070312 5.585938 -33.050781 L 5.585938 -12.726562 C 5.585938 -3.707031 5.308594 -0.457031 1.375 -0.457031 L 1.375 0 L 34.105469 0 L 34.105469 -7.554688 L 33.648438 -7.554688 C 33.648438 -0.960938 19.683594 -0.457031 15.335938 -0.457031 L 9.523438 -0.457031 L 9.523438 -33.050781 C 9.523438 -42.070312 9.796875 -45.320312 13.734375 -45.320312 L 13.734375 -45.777344 Z M 1.375 -45.777344 "/></g></g><g style="fill:rgb(0%,0%,0%);fill-opacity:1;"><g transform="translate(243.363933, 193.167625)"><path style="stroke:none;" d="M 1.375 -45.777344 L 1.375 -45.320312 C 5.308594 -45.320312 5.585938 -42.070312 5.585938 -33.050781 L 5.585938 -12.726562 C 5.585938 -3.707031 5.308594 -0.457031 1.375 -0.457031 L 1.375 0 L 34.105469 0 L 34.105469 -7.554688 L 33.648438 -7.554688 C 33.648438 -0.960938 19.683594 -0.457031 15.335938 -0.457031 L 9.523438 -0.457031 L 9.523438 -33.050781 C 9.523438 -42.070312 9.796875 -45.320312 13.734375 -45.320312 L 13.734375 -45.777344 Z M 1.375 -45.777344 "/></g></g><g style="fill:rgb(0%,0%,0%);fill-opacity:1;"><g transform="translate(6.458201, 254.852631)"><path style="stroke:none;" d="M 1.597656 -53.308594 L 1.597656 -52.777344 C 6.183594 -52.777344 6.503906 -48.992188 6.503906 -38.488281 L 6.503906 -14.820312 C 6.503906 -4.316406 6.183594 -0.53125 1.597656 -0.53125 L 1.597656 0 L 15.992188 0 L 15.992188 -0.53125 C 11.410156 -0.53125 7.035156 -6.769531 7.035156 -22.285156 L 7.035156 -50.324219 L 40.78125 1.066406 L 41.316406 1.066406 L 41.316406 -38.488281 C 41.316406 -48.992188 41.632812 -52.777344 46.21875 -52.777344 L 46.21875 -53.308594 L 31.824219 -53.308594 L 31.824219 -52.777344 C 36.410156 -52.777344 40.78125 -46.539062 40.78125 -31.027344 L 40.78125 -7.78125 L 10.929688 -53.308594 Z M 1.597656 -53.308594 "/></g></g><g style="fill:rgb(0%,0%,0%);fill-opacity:1;"><g transform="translate(54.268976, 254.852631)"><path style="stroke:none;" d="M 1.597656 -9.328125 C 1.597656 -3.785156 5.117188 1.066406 11.300781 1.066406 C 21.910156 1.066406 28.148438 -8.316406 28.148438 -21.269531 C 28.148438 -23.828125 28.039062 -25.960938 27.828125 -27.667969 L 34.4375 -10.234375 C 36.464844 -4.851562 36.730469 -0.53125 29.214844 -0.53125 L 29.214844 0 L 46.699219 0 L 46.699219 -0.53125 C 43.445312 -0.53125 41.742188 -3.464844 39.394531 -9.328125 L 22.335938 -54.375 L 21.804688 -54.375 C 18.445312 -45.527344 16.472656 -40.25 13.222656 -31.664062 C 12.6875 -30.28125 12.953125 -28.839844 14.445312 -28.839844 C 17.484375 -28.839844 19.085938 -34.4375 21.644531 -34.4375 C 22.335938 -34.4375 22.921875 -34.011719 22.921875 -33 C 22.921875 -27.453125 1.597656 -22.441406 1.597656 -9.328125 Z M 6.128906 -10.34375 C 6.128906 -23.507812 23.507812 -25.75 23.507812 -32.890625 C 23.507812 -34.277344 22.761719 -34.972656 21.75 -34.972656 C 18.925781 -34.972656 16.953125 -29.375 14.5 -29.375 C 13.648438 -29.375 13.222656 -30.011719 13.914062 -31.878906 L 20.042969 -48.191406 L 26.496094 -31.1875 C 27.453125 -28.039062 27.613281 -25.109375 27.613281 -21.164062 C 27.613281 -12.421875 23.402344 -1.492188 14.5 -1.492188 C 9.277344 -1.492188 6.128906 -5.332031 6.128906 -10.34375 Z M 6.128906 -10.34375 "/></g></g><g style="fill:rgb(0%,0%,0%);fill-opacity:1;"><g transform="translate(100.960446, 254.852631)"><path style="stroke:none;" d="M 1.597656 -53.308594 L 1.597656 -46.113281 L 2.132812 -46.113281 C 2.132812 -46.273438 2.078125 -46.113281 2.078125 -46.324219 C 2.078125 -49.898438 8.796875 -52.777344 17.964844 -52.777344 L 17.964844 -14.820312 C 17.964844 -4.316406 17.644531 -0.53125 13.0625 -0.53125 L 13.0625 0 L 26.972656 0 L 26.972656 -0.53125 C 22.390625 -0.53125 22.496094 -4.316406 22.496094 -14.820312 L 22.496094 -52.777344 C 31.664062 -52.777344 38.382812 -49.898438 38.382812 -46.324219 C 38.382812 -46.113281 38.328125 -46.273438 38.328125 -46.113281 L 38.863281 -46.113281 L 38.863281 -53.308594 Z M 1.597656 -53.308594 "/></g></g><g style="fill:rgb(0%,0%,0%);fill-opacity:1;"><g transform="translate(141.415724, 254.852631)"><path style="stroke:none;" d="M 1.597656 -52.777344 C 6.183594 -52.777344 6.503906 -48.992188 6.503906 -38.488281 L 6.503906 -14.820312 C 6.503906 -4.050781 14.714844 1.066406 24.523438 1.066406 C 34.332031 1.066406 42.328125 -4.15625 42.328125 -14.820312 L 42.328125 -38.488281 C 42.328125 -48.992188 42.648438 -52.777344 47.230469 -52.777344 L 47.230469 -53.308594 L 32.839844 -53.308594 L 32.839844 -52.777344 C 37.421875 -52.777344 37.742188 -48.992188 37.742188 -38.488281 L 37.742188 -14.820312 C 37.742188 -4.53125 32.09375 0.53125 24.523438 0.53125 C 16.953125 0.53125 11.089844 -4.476562 11.089844 -14.820312 L 11.089844 -38.488281 C 11.089844 -48.992188 11.410156 -52.777344 15.992188 -52.777344 L 15.992188 -53.308594 L 1.597656 -53.308594 Z M 1.597656 -52.777344 "/></g></g><g style="fill:rgb(0%,0%,0%);fill-opacity:1;"><g transform="translate(190.239216, 254.852631)"><path style="stroke:none;" d="M 1.597656 0 L 15.941406 0 L 15.941406 -0.53125 C 11.355469 -0.53125 11.035156 -4.316406 11.035156 -14.820312 L 11.035156 -51.921875 C 14.285156 -53.097656 16.847656 -53.628906 20.789062 -53.628906 C 30.707031 -53.628906 36.945312 -48.191406 36.945312 -39.34375 C 36.945312 -32.945312 32.625 -26.386719 25.960938 -26.386719 C 21.003906 -26.386719 18.550781 -29.425781 15.40625 -29.425781 C 14.445312 -29.425781 13.539062 -28.894531 13.539062 -27.613281 C 13.539062 -23.988281 19.191406 -23.777344 24.363281 -15.992188 C 32.785156 -3.359375 34.277344 0 36.730469 0 L 44.886719 0 L 44.886719 -0.53125 C 38.808594 -0.53125 33.851562 -10.023438 29.640625 -16.578125 C 25.320312 -23.296875 14.074219 -24.042969 14.074219 -27.507812 C 14.074219 -28.734375 14.980469 -28.894531 15.621094 -28.894531 C 17.859375 -28.894531 21.269531 -25.480469 26.28125 -25.480469 C 35.558594 -25.480469 41.527344 -32.09375 41.527344 -39.394531 C 41.527344 -48.085938 35.183594 -54.375 23.828125 -54.375 C 17.644531 -54.375 13.859375 -53.308594 7.996094 -53.308594 L 1.597656 -53.308594 L 1.597656 -52.777344 C 6.183594 -52.777344 6.503906 -48.992188 6.503906 -38.488281 L 6.503906 -14.820312 C 6.503906 -4.316406 6.183594 -0.53125 1.597656 -0.53125 Z M 1.597656 0 "/></g></g><g style="fill:rgb(0%,0%,0%);fill-opacity:1;"><g transform="translate(236.717469, 254.852631)"><path style="stroke:none;" d="M 1.597656 -9.328125 C 1.597656 -3.785156 5.117188 1.066406 11.300781 1.066406 C 21.910156 1.066406 28.148438 -8.316406 28.148438 -21.269531 C 28.148438 -23.828125 28.039062 -25.960938 27.828125 -27.667969 L 34.4375 -10.234375 C 36.464844 -4.851562 36.730469 -0.53125 29.214844 -0.53125 L 29.214844 0 L 46.699219 0 L 46.699219 -0.53125 C 43.445312 -0.53125 41.742188 -3.464844 39.394531 -9.328125 L 22.335938 -54.375 L 21.804688 -54.375 C 18.445312 -45.527344 16.472656 -40.25 13.222656 -31.664062 C 12.6875 -30.28125 12.953125 -28.839844 14.445312 -28.839844 C 17.484375 -28.839844 19.085938 -34.4375 21.644531 -34.4375 C 22.335938 -34.4375 22.921875 -34.011719 22.921875 -33 C 22.921875 -27.453125 1.597656 -22.441406 1.597656 -9.328125 Z M 6.128906 -10.34375 C 6.128906 -23.507812 23.507812 -25.75 23.507812 -32.890625 C 23.507812 -34.277344 22.761719 -34.972656 21.75 -34.972656 C 18.925781 -34.972656 16.953125 -29.375 14.5 -29.375 C 13.648438 -29.375 13.222656 -30.011719 13.914062 -31.878906 L 20.042969 -48.191406 L 26.496094 -31.1875 C 27.453125 -28.039062 27.613281 -25.109375 27.613281 -21.164062 C 27.613281 -12.421875 23.402344 -1.492188 14.5 -1.492188 C 9.277344 -1.492188 6.128906 -5.332031 6.128906 -10.34375 Z M 6.128906 -10.34375 "/></g></g><g style="fill:rgb(0%,0%,0%);fill-opacity:1;"><g transform="translate(283.40895, 254.852631)"><path style="stroke:none;" d="M 1.597656 -53.308594 L 1.597656 -52.777344 C 6.183594 -52.777344 6.503906 -48.992188 6.503906 -38.488281 L 6.503906 -14.820312 C 6.503906 -4.316406 6.183594 -0.53125 1.597656 -0.53125 L 1.597656 0 L 39.714844 0 L 39.714844 -8.796875 L 39.183594 -8.796875 C 39.183594 -1.121094 22.921875 -0.53125 17.859375 -0.53125 L 11.089844 -0.53125 L 11.089844 -38.488281 C 11.089844 -48.992188 11.410156 -52.777344 15.992188 -52.777344 L 15.992188 -53.308594 Z M 1.597656 -53.308594 "/></g></g><g style="fill:rgb(0%,0%,0%);fill-opacity:1;"><g transform="translate(324.717036, 254.852631)"><path style="stroke:none;" d="M 3.199219 -40.515625 C 3.199219 -23.03125 37.53125 -27.5625 37.53125 -11.515625 C 37.53125 -5.597656 31.398438 0.105469 23.617188 0.105469 C 10.929688 0.105469 3.945312 -12.582031 3.945312 -12.582031 L 3.410156 -12.582031 L 3.410156 -5.4375 C 7.355469 -2.503906 13.59375 1.066406 20.628906 1.066406 C 32.945312 1.066406 40.621094 -6.289062 40.621094 -13.699219 C 40.621094 -32.359375 6.929688 -27.1875 6.929688 -41.792969 C 6.929688 -47.710938 12.367188 -53.734375 22.285156 -53.734375 C 33.691406 -53.734375 36.945312 -44.78125 36.945312 -44.78125 L 37.476562 -44.78125 L 37.476562 -51.921875 C 33.371094 -53.308594 28.839844 -54.375 22.285156 -54.375 C 9.96875 -54.375 3.199219 -47.925781 3.199219 -40.515625 Z M 3.199219 -40.515625 "/></g></g><g clip-rule="nonzero" clip-path="url(#clip1)"><path style=" stroke:none;fill-rule:nonzero;fill:rgb(0%,0%,0%);fill-opacity:1;" d="M 373.710938 105.65625 L 360.84375 113.28125 C 363.917969 112.28125 367.035156 110.945312 370.171875 109.289062 C 370.5625 109.082031 371.039062 109.234375 371.246094 109.625 C 371.457031 110.011719 371.304688 110.492188 370.914062 110.699219 C 365.808594 113.382812 360.734375 115.253906 355.820312 116.253906 L 351.992188 118.519531 C 357.222656 117.917969 362.320312 116.628906 366.644531 114.785156 C 367.050781 114.609375 367.523438 114.800781 367.691406 115.207031 C 367.867188 115.609375 367.675781 116.070312 367.265625 116.246094 C 361.882812 118.542969 355.332031 120.015625 348.808594 120.40625 L 344.90625 122.71875 C 351.167969 123.65625 357.863281 122.488281 363.566406 119.394531 C 363.949219 119.179688 364.433594 119.332031 364.652344 119.714844 C 364.859375 120.101562 364.714844 120.578125 364.332031 120.792969 C 359.679688 123.324219 354.390625 124.632812 349.175781 124.632812 C 347.03125 124.632812 344.90625 124.402344 342.832031 123.957031 L 338.460938 126.550781 C 345.195312 127.734375 352.300781 127.105469 358.699219 124.738281 C 359.113281 124.585938 359.570312 124.792969 359.730469 125.207031 C 359.878906 125.621094 359.671875 126.074219 359.257812 126.234375 C 354.78125 127.894531 349.980469 128.730469 345.179688 128.730469 C 342.226562 128.730469 339.285156 128.402344 336.417969 127.765625 L 333.914062 129.253906 C 339.792969 131.257812 347.414062 131.328125 353.410156 129.339844 C 353.832031 129.207031 354.28125 129.429688 354.417969 129.84375 C 354.550781 130.253906 354.328125 130.707031 353.914062 130.84375 C 350.761719 131.886719 347.269531 132.402344 343.78125 132.402344 C 339.691406 132.402344 335.628906 131.6875 332.160156 130.289062 L 329.082031 132.109375 C 334.96875 134.953125 341.859375 135.480469 348.113281 133.523438 C 348.535156 133.386719 348.984375 133.625 349.113281 134.046875 C 349.246094 134.46875 349.007812 134.914062 348.585938 135.042969 C 345.929688 135.867188 343.167969 136.28125 340.410156 136.28125 C 335.988281 136.28125 331.585938 135.234375 327.636719 133.171875 C 327.574219 133.140625 327.523438 133.09375 327.476562 133.046875 L 324.859375 134.597656 C 330.363281 137.578125 336.9375 138.445312 343.023438 136.980469 C 343.457031 136.878906 343.886719 137.140625 343.988281 137.570312 C 344.09375 138 343.832031 138.429688 343.398438 138.53125 C 341.332031 139.03125 339.210938 139.28125 337.097656 139.28125 C 332.3125 139.28125 327.535156 138.023438 323.386719 135.613281 C 323.351562 135.589844 323.328125 135.558594 323.296875 135.535156 L 319.972656 137.507812 C 326.632812 141.011719 333.03125 140.527344 336.15625 140.28125 L 336.445312 140.257812 C 336.890625 140.226562 337.265625 140.550781 337.296875 140.988281 C 337.328125 141.425781 337.003906 141.808594 336.5625 141.839844 L 336.277344 141.863281 C 335.269531 141.941406 333.945312 142.046875 332.398438 142.046875 C 328.675781 142.046875 323.625 141.449219 318.4375 138.492188 C 318.414062 138.476562 318.398438 138.453125 318.382812 138.445312 L 315.957031 139.882812 C 320.433594 141.925781 325.546875 143.84375 330.789062 143.113281 C 331.21875 143.046875 331.625 143.351562 331.6875 143.789062 C 331.753906 144.226562 331.449219 144.621094 331.011719 144.6875 C 330.148438 144.804688 329.289062 144.859375 328.441406 144.859375 C 323.328125 144.859375 318.511719 142.832031 314.300781 140.871094 L 291.085938 154.625 L 291.085938 201.945312 C 291.085938 202.382812 290.726562 202.742188 290.289062 202.742188 C 289.847656 202.742188 289.492188 202.382812 289.492188 201.945312 L 289.492188 154.625 L 266.277344 140.871094 C 262.066406 142.839844 257.246094 144.859375 252.132812 144.859375 C 251.289062 144.859375 250.425781 144.804688 249.566406 144.6875 C 249.125 144.621094 248.824219 144.226562 248.886719 143.789062 C 248.949219 143.351562 249.359375 143.046875 249.789062 143.113281 C 255.03125 143.84375 260.144531 141.925781 264.617188 139.882812 L 262.191406 138.445312 C 262.167969 138.460938 262.160156 138.484375 262.136719 138.492188 C 256.953125 141.449219 251.902344 142.046875 248.175781 142.046875 C 246.621094 142.046875 245.296875 141.941406 244.300781 141.863281 L 244.011719 141.839844 C 243.574219 141.808594 243.246094 141.425781 243.277344 140.988281 C 243.3125 140.550781 243.695312 140.226562 244.132812 140.257812 L 244.417969 140.28125 C 247.554688 140.527344 253.953125 141.011719 260.605469 137.507812 L 257.277344 135.535156 C 257.246094 135.558594 257.222656 135.589844 257.191406 135.613281 C 253.042969 138.03125 248.265625 139.28125 243.476562 139.28125 C 241.355469 139.28125 239.242188 139.03125 237.175781 138.53125 C 236.746094 138.429688 236.484375 138 236.585938 137.570312 C 236.691406 137.140625 237.121094 136.878906 237.550781 136.980469 C 243.644531 138.453125 250.21875 137.578125 255.714844 134.597656 L 253.097656 133.046875 C 253.050781 133.09375 253.003906 133.140625 252.9375 133.171875 C 249 135.234375 244.585938 136.28125 240.167969 136.28125 C 237.40625 136.28125 234.648438 135.867188 231.992188 135.042969 C 231.570312 134.90625 231.335938 134.460938 231.464844 134.046875 C 231.59375 133.632812 232.046875 133.394531 232.460938 133.523438 C 238.714844 135.480469 245.609375 134.945312 251.496094 132.109375 L 248.417969 130.289062 C 244.945312 131.6875 240.886719 132.402344 236.792969 132.402344 C 233.308594 132.402344 229.804688 131.886719 226.664062 130.84375 C 226.246094 130.707031 226.015625 130.253906 226.160156 129.84375 C 226.296875 129.429688 226.75 129.207031 227.164062 129.339844 C 233.164062 131.328125 240.78125 131.257812 246.660156 129.253906 L 244.15625 127.765625 C 241.292969 128.410156 238.347656 128.730469 235.398438 128.730469 C 230.59375 128.730469 225.792969 127.886719 221.316406 126.234375 C 220.902344 126.082031 220.695312 125.621094 220.847656 125.207031 C 221 124.792969 221.460938 124.585938 221.875 124.738281 C 228.273438 127.105469 235.382812 127.734375 242.113281 126.550781 L 237.742188 123.957031 C 235.667969 124.402344 233.539062 124.632812 231.402344 124.632812 C 226.183594 124.632812 220.894531 123.324219 216.246094 120.792969 C 215.855469 120.585938 215.71875 120.101562 215.925781 119.714844 C 216.132812 119.324219 216.621094 119.179688 217.011719 119.394531 C 222.714844 122.488281 229.398438 123.65625 235.667969 122.71875 L 231.769531 120.40625 C 225.242188 120.015625 218.695312 118.542969 213.308594 116.246094 C 212.902344 116.070312 212.71875 115.609375 212.886719 115.207031 C 213.0625 114.800781 213.523438 114.609375 213.929688 114.785156 C 218.253906 116.628906 223.359375 117.910156 228.585938 118.519531 L 224.757812 116.253906 C 219.851562 115.261719 214.769531 113.394531 209.671875 110.707031 C 209.28125 110.5 209.128906 110.023438 209.335938 109.632812 C 209.542969 109.242188 210.023438 109.089844 210.414062 109.296875 C 213.546875 110.953125 216.667969 112.28125 219.738281 113.289062 L 206.871094 105.65625 C 206.496094 105.433594 206.367188 104.941406 206.59375 104.566406 C 206.816406 104.1875 207.300781 104.066406 207.683594 104.289062 L 220.550781 111.914062 C 218.199219 109.703125 215.535156 107.613281 212.582031 105.65625 C 212.214844 105.410156 212.113281 104.917969 212.359375 104.550781 C 212.605469 104.1875 213.101562 104.082031 213.46875 104.328125 C 218.277344 107.507812 222.347656 111.0625 225.570312 114.886719 L 229.398438 117.152344 C 226.367188 112.867188 222.792969 109.011719 219.109375 106.101562 C 218.765625 105.832031 218.703125 105.332031 218.980469 104.988281 C 219.25 104.648438 219.753906 104.582031 220.097656 104.863281 C 224.691406 108.488281 229.121094 113.511719 232.582031 119.046875 L 236.484375 121.359375 C 234.320312 115.421875 230.09375 110.125 224.644531 106.609375 C 224.277344 106.371094 224.164062 105.878906 224.40625 105.511719 C 224.644531 105.148438 225.140625 105.035156 225.507812 105.273438 C 231.785156 109.320312 236.523438 115.617188 238.566406 122.589844 L 242.9375 125.183594 C 240.765625 118.71875 236.816406 112.796875 231.671875 108.328125 C 231.335938 108.042969 231.304688 107.542969 231.59375 107.207031 C 231.878906 106.875 232.382812 106.839844 232.71875 107.128906 C 238.53125 112.175781 242.878906 119.003906 244.984375 126.398438 L 247.484375 127.878906 C 246.445312 121.773438 242.863281 115.070312 238.253906 110.769531 C 237.933594 110.46875 237.917969 109.964844 238.214844 109.648438 C 238.515625 109.328125 239.019531 109.3125 239.339844 109.609375 C 244.601562 114.511719 248.457031 122.058594 249.238281 128.921875 L 252.316406 130.742188 C 252.015625 124.222656 249.183594 117.941406 244.476562 113.394531 C 244.15625 113.089844 244.148438 112.582031 244.460938 112.273438 C 244.761719 111.953125 245.273438 111.945312 245.585938 112.253906 C 250.777344 117.273438 253.824219 124.277344 253.945312 131.488281 C 253.945312 131.558594 253.921875 131.625 253.90625 131.6875 L 256.519531 133.238281 C 256.519531 126.996094 254.152344 120.828125 249.949219 116.191406 C 249.652344 115.863281 249.675781 115.363281 250.003906 115.070312 C 250.332031 114.777344 250.832031 114.800781 251.128906 115.125 C 255.777344 120.246094 258.324219 127.148438 258.109375 134.046875 C 258.109375 134.085938 258.09375 134.128906 258.085938 134.167969 L 261.410156 136.140625 C 261.324219 128.632812 257.835938 123.257812 256.121094 120.636719 L 255.960938 120.398438 C 255.722656 120.03125 255.828125 119.539062 256.195312 119.300781 C 256.5625 119.0625 257.054688 119.164062 257.292969 119.53125 L 257.453125 119.769531 C 259.3125 122.625 263.191406 128.5625 263.007812 136.996094 C 263.007812 137.023438 262.992188 137.046875 262.992188 137.070312 L 265.414062 138.507812 C 265.082031 133.609375 264.332031 128.21875 261.179688 123.984375 C 260.917969 123.632812 260.988281 123.132812 261.347656 122.871094 C 261.699219 122.605469 262.199219 122.679688 262.464844 123.035156 C 266.109375 127.933594 266.761719 134.097656 267.082031 139.496094 L 288.742188 152.328125 L 279.367188 126.925781 C 274.101562 125.621094 268.144531 123.855469 263.980469 119.386719 C 263.675781 119.070312 263.699219 118.558594 264.019531 118.265625 C 264.347656 117.964844 264.847656 117.988281 265.144531 118.304688 C 268.75 122.171875 273.933594 123.886719 278.699219 125.113281 L 277.722656 122.480469 C 277.699219 122.480469 277.667969 122.480469 277.644531 122.472656 C 269.285156 121.113281 264.140625 116.230469 261.660156 113.886719 L 261.449219 113.6875 C 261.132812 113.382812 261.117188 112.882812 261.417969 112.566406 C 261.722656 112.246094 262.226562 112.230469 262.542969 112.535156 L 262.75 112.734375 C 265.023438 114.886719 269.683594 119.292969 277.078125 120.746094 L 275.746094 117.144531 C 275.707031 117.144531 275.667969 117.144531 275.625 117.136719 C 268.773438 116.078125 262.441406 112.328125 258.234375 106.832031 C 257.972656 106.484375 258.035156 105.984375 258.386719 105.71875 C 258.738281 105.449219 259.242188 105.523438 259.503906 105.871094 C 263.300781 110.839844 268.964844 114.292969 275.117188 115.429688 L 274.070312 112.589844 C 274.054688 112.589844 274.039062 112.597656 274.023438 112.597656 C 273.96875 112.597656 273.917969 112.589844 273.863281 112.582031 C 266.773438 111.152344 260.414062 106.882812 256.417969 100.878906 C 256.171875 100.511719 256.273438 100.019531 256.640625 99.773438 C 257.007812 99.527344 257.503906 99.628906 257.75 99.996094 C 261.371094 105.441406 267.050781 109.363281 273.425781 110.847656 L 272.1875 107.5 C 265.558594 105.480469 258.828125 100.320312 254.941406 94.273438 C 254.703125 93.90625 254.8125 93.414062 255.179688 93.175781 C 255.554688 92.9375 256.042969 93.046875 256.28125 93.414062 C 259.679688 98.722656 265.640625 103.453125 271.476562 105.585938 L 270.472656 102.867188 C 263.566406 99.449219 257.621094 93.945312 253.707031 87.324219 C 253.480469 86.941406 253.609375 86.457031 253.984375 86.234375 C 254.367188 86.011719 254.855469 86.136719 255.078125 86.511719 C 258.539062 92.371094 263.667969 97.316406 269.644531 100.632812 L 267.90625 95.878906 C 261.402344 92.601562 256.050781 86.804688 253.203125 79.921875 C 253.035156 79.515625 253.226562 79.046875 253.632812 78.878906 C 254.039062 78.710938 254.511719 78.902344 254.679688 79.308594 C 257.152344 85.289062 261.601562 90.398438 267.066406 93.605469 L 265.503906 89.359375 C 260.683594 84.953125 256.527344 79.699219 253.792969 74.539062 C 253.585938 74.148438 253.738281 73.671875 254.128906 73.464844 C 254.519531 73.257812 254.996094 73.410156 255.203125 73.800781 C 257.398438 77.941406 260.550781 82.148438 264.226562 85.898438 L 262.6875 81.734375 C 259.496094 77.878906 256.738281 73.242188 254.480469 67.949219 C 254.304688 67.542969 254.496094 67.074219 254.902344 66.90625 C 255.308594 66.730469 255.777344 66.921875 255.945312 67.328125 C 257.335938 70.578125 258.914062 73.566406 260.660156 76.28125 L 255.492188 62.277344 C 255.339844 61.863281 255.546875 61.410156 255.960938 61.261719 C 256.378906 61.109375 256.832031 61.324219 256.984375 61.730469 L 262.152344 75.738281 C 261.722656 72.542969 260.980469 69.242188 259.917969 65.871094 C 259.792969 65.449219 260.023438 65.003906 260.445312 64.878906 C 260.867188 64.75 261.316406 64.980469 261.441406 65.402344 C 263.164062 70.898438 264.074219 76.207031 264.171875 81.199219 L 265.710938 85.367188 C 266.070312 80.128906 265.734375 74.894531 264.707031 70.324219 C 264.609375 69.894531 264.882812 69.472656 265.3125 69.378906 C 265.742188 69.28125 266.164062 69.554688 266.261719 69.984375 C 267.539062 75.675781 267.792969 82.363281 266.988281 88.832031 L 268.550781 93.078125 C 270.625 87.109375 270.6875 80.34375 268.679688 74.1875 C 268.542969 73.765625 268.773438 73.320312 269.1875 73.1875 C 269.601562 73.050781 270.058594 73.28125 270.195312 73.695312 C 272.507812 80.78125 272.203125 88.652344 269.378906 95.34375 L 271.136719 100.097656 C 273.527344 93.714844 274.214844 86.640625 273.042969 79.9375 C 272.96875 79.507812 273.257812 79.09375 273.6875 79.015625 C 274.117188 78.941406 274.535156 79.230469 274.613281 79.660156 C 275.9375 87.226562 274.988281 95.257812 271.957031 102.324219 L 272.960938 105.042969 C 276.015625 99.652344 277.476562 92.195312 276.617188 85.964844 C 276.550781 85.527344 276.863281 85.128906 277.292969 85.066406 C 277.730469 84.992188 278.132812 85.3125 278.195312 85.742188 C 279.175781 92.855469 277.398438 101.132812 273.671875 106.960938 L 274.910156 110.308594 C 278.792969 105.050781 280.570312 98.398438 279.78125 91.917969 C 279.726562 91.480469 280.039062 91.082031 280.476562 91.035156 C 280.914062 90.988281 281.3125 91.296875 281.363281 91.726562 C 282.222656 98.882812 280.15625 106.238281 275.699219 111.90625 C 275.65625 111.960938 275.59375 111.992188 275.539062 112.03125 L 276.589844 114.886719 C 280.53125 110.039062 282.597656 103.757812 282.261719 97.523438 C 282.238281 97.085938 282.574219 96.710938 283.011719 96.6875 C 283.453125 96.671875 283.828125 97 283.851562 97.445312 C 284.226562 104.34375 281.839844 111.292969 277.308594 116.523438 C 277.285156 116.558594 277.246094 116.574219 277.214844 116.597656 L 278.554688 120.222656 C 283.226562 114.339844 283.921875 107.976562 284.25 104.871094 L 284.28125 104.582031 C 284.328125 104.144531 284.71875 103.835938 285.160156 103.875 C 285.597656 103.921875 285.917969 104.3125 285.867188 104.75 L 285.835938 105.035156 C 285.476562 108.421875 284.726562 115.46875 279.253906 121.898438 C 279.238281 121.921875 279.214844 121.929688 279.191406 121.949219 L 280.164062 124.585938 C 282.996094 120.570312 285.820312 115.914062 286.058594 110.640625 C 286.078125 110.203125 286.46875 109.855469 286.890625 109.878906 C 287.328125 109.894531 287.671875 110.269531 287.65625 110.707031 C 287.382812 116.804688 284.003906 121.996094 280.835938 126.382812 L 290.265625 151.921875 L 299.691406 126.382812 C 296.535156 121.996094 293.144531 116.796875 292.871094 110.707031 C 292.855469 110.269531 293.191406 109.894531 293.636719 109.878906 C 294.070312 109.855469 294.453125 110.195312 294.46875 110.640625 C 294.699219 115.914062 297.53125 120.570312 300.363281 124.585938 L 301.335938 121.949219 C 301.320312 121.929688 301.289062 121.921875 301.273438 121.898438 C 295.792969 115.46875 295.050781 108.421875 294.691406 105.035156 L 294.660156 104.75 C 294.613281 104.3125 294.929688 103.921875 295.371094 103.875 C 295.808594 103.828125 296.199219 104.144531 296.246094 104.582031 L 296.277344 104.871094 C 296.605469 107.984375 297.292969 114.339844 301.976562 120.222656 L 303.316406 116.597656 C 303.28125 116.574219 303.242188 116.558594 303.21875 116.523438 C 298.6875 111.292969 296.304688 104.34375 296.679688 97.445312 C 296.703125 97.007812 297.085938 96.679688 297.515625 96.6875 C 297.953125 96.710938 298.289062 97.085938 298.265625 97.523438 C 297.929688 103.757812 299.988281 110.046875 303.9375 114.886719 L 304.988281 112.03125 C 304.933594 111.992188 304.878906 111.960938 304.832031 111.90625 C 300.363281 106.238281 298.296875 98.882812 299.167969 91.726562 C 299.222656 91.289062 299.613281 90.980469 300.050781 91.035156 C 300.492188 91.089844 300.800781 91.480469 300.746094 91.917969 C 299.964844 98.40625 301.742188 105.058594 305.621094 110.308594 L 306.855469 106.960938 C 303.125 101.140625 301.351562 92.863281 302.332031 85.742188 C 302.390625 85.304688 302.796875 84.992188 303.234375 85.066406 C 303.671875 85.128906 303.976562 85.527344 303.914062 85.964844 C 303.050781 92.203125 304.511719 99.652344 307.566406 105.042969 L 308.570312 102.324219 C 305.539062 95.265625 304.589844 87.226562 305.914062 79.660156 C 305.996094 79.230469 306.410156 78.941406 306.839844 79.015625 C 307.269531 79.085938 307.566406 79.5 307.488281 79.9375 C 306.3125 86.640625 307 93.714844 309.394531 100.097656 L 311.148438 95.34375 C 308.324219 88.652344 308.019531 80.78125 310.335938 73.695312 C 310.46875 73.28125 310.925781 73.050781 311.339844 73.1875 C 311.761719 73.320312 311.984375 73.773438 311.851562 74.1875 C 309.839844 80.34375 309.910156 87.109375 311.976562 93.078125 L 313.542969 88.832031 C 312.734375 82.371094 312.992188 75.683594 314.265625 69.984375 C 314.363281 69.554688 314.792969 69.28125 315.214844 69.378906 C 315.648438 69.472656 315.917969 69.902344 315.824219 70.324219 C 314.792969 74.894531 314.457031 80.136719 314.816406 85.367188 L 316.355469 81.199219 C 316.445312 76.207031 317.363281 70.890625 319.085938 65.402344 C 319.222656 64.980469 319.667969 64.75 320.082031 64.878906 C 320.503906 65.003906 320.738281 65.449219 320.609375 65.871094 C 319.546875 69.242188 318.804688 72.542969 318.375 75.738281 L 323.542969 61.730469 C 323.695312 61.316406 324.160156 61.109375 324.566406 61.261719 C 324.980469 61.410156 325.1875 61.875 325.035156 62.277344 L 319.867188 76.28125 C 321.613281 73.578125 323.195312 70.578125 324.582031 67.328125 C 324.757812 66.921875 325.226562 66.730469 325.625 66.90625 C 326.035156 67.082031 326.21875 67.542969 326.050781 67.949219 C 323.792969 73.242188 321.03125 77.878906 317.847656 81.734375 L 316.308594 85.898438 C 319.988281 82.140625 323.136719 77.941406 325.332031 73.800781 C 325.539062 73.410156 326.019531 73.265625 326.410156 73.464844 C 326.800781 73.671875 326.949219 74.148438 326.742188 74.539062 C 324.007812 79.699219 319.859375 84.953125 315.03125 89.359375 L 313.46875 93.605469 C 318.925781 90.398438 323.386719 85.289062 325.859375 79.308594 C 326.027344 78.902344 326.496094 78.710938 326.902344 78.878906 C 327.308594 79.046875 327.5 79.507812 327.332031 79.921875 C 324.484375 86.804688 319.140625 92.609375 312.632812 95.878906 L 310.878906 100.632812 C 316.851562 97.324219 321.980469 92.371094 325.441406 86.511719 C 325.667969 86.136719 326.152344 86.011719 326.535156 86.234375 C 326.917969 86.457031 327.039062 86.941406 326.816406 87.324219 C 322.898438 93.9375 316.957031 99.449219 310.046875 102.867188 L 309.042969 105.585938 C 314.875 103.445312 320.832031 98.714844 324.238281 93.414062 C 324.476562 93.046875 324.972656 92.9375 325.339844 93.175781 C 325.714844 93.414062 325.816406 93.90625 325.578125 94.273438 C 321.703125 100.320312 314.960938 105.480469 308.332031 107.5 L 307.097656 110.847656 C 313.46875 109.363281 319.148438 105.441406 322.769531 99.996094 C 323.011719 99.628906 323.503906 99.527344 323.878906 99.773438 C 324.246094 100.011719 324.351562 100.503906 324.101562 100.878906 C 320.105469 106.890625 313.75 111.152344 306.65625 112.582031 C 306.601562 112.589844 306.554688 112.597656 306.496094 112.597656 C 306.480469 112.597656 306.464844 112.589844 306.449219 112.589844 L 305.40625 115.429688 C 311.5625 114.28125 317.21875 110.832031 321.015625 105.871094 C 321.277344 105.523438 321.78125 105.449219 322.132812 105.71875 C 322.484375 105.984375 322.546875 106.484375 322.285156 106.832031 C 318.082031 112.328125 311.738281 116.078125 304.894531 117.136719 C 304.855469 117.144531 304.816406 117.144531 304.773438 117.144531 L 303.441406 120.746094 C 310.828125 119.292969 315.488281 114.894531 317.769531 112.734375 L 317.976562 112.535156 C 318.296875 112.230469 318.796875 112.246094 319.101562 112.566406 C 319.40625 112.882812 319.390625 113.382812 319.070312 113.6875 L 318.863281 113.886719 C 316.390625 116.230469 311.234375 121.113281 302.875 122.472656 C 302.851562 122.480469 302.820312 122.480469 302.796875 122.480469 L 301.824219 125.113281 C 306.585938 123.886719 311.777344 122.160156 315.375 118.304688 C 315.679688 117.988281 316.183594 117.964844 316.5 118.265625 C 316.820312 118.570312 316.84375 119.070312 316.539062 119.386719 C 312.375 123.855469 306.417969 125.621094 301.152344 126.925781 L 291.835938 152.328125 L 313.492188 139.496094 C 313.8125 134.097656 314.464844 127.933594 318.113281 123.035156 C 318.375 122.6875 318.871094 122.605469 319.230469 122.871094 C 319.582031 123.132812 319.660156 123.632812 319.398438 123.984375 C 316.246094 128.21875 315.496094 133.609375 315.160156 138.507812 L 317.585938 137.070312 C 317.585938 137.046875 317.570312 137.023438 317.570312 136.996094 C 317.386719 128.5625 321.253906 122.625 323.121094 119.769531 L 323.28125 119.53125 C 323.519531 119.164062 324.015625 119.054688 324.382812 119.300781 C 324.75 119.539062 324.859375 120.03125 324.613281 120.398438 L 324.453125 120.636719 C 322.738281 123.257812 319.253906 128.632812 319.164062 136.140625 L 322.492188 134.167969 C 322.484375 134.128906 322.46875 134.097656 322.46875 134.046875 C 322.253906 127.148438 324.804688 120.246094 329.449219 115.125 C 329.742188 114.800781 330.246094 114.777344 330.574219 115.070312 C 330.898438 115.363281 330.921875 115.867188 330.628906 116.191406 C 326.425781 120.828125 324.054688 126.996094 324.054688 133.238281 L 326.671875 131.6875 C 326.65625 131.625 326.632812 131.558594 326.632812 131.488281 C 326.75 124.277344 329.789062 117.273438 334.992188 112.253906 C 335.3125 111.953125 335.8125 111.960938 336.117188 112.273438 C 336.417969 112.589844 336.410156 113.089844 336.101562 113.394531 C 331.394531 117.933594 328.5625 124.222656 328.257812 130.742188 L 331.339844 128.921875 C 332.121094 122.058594 335.980469 114.511719 341.238281 109.609375 C 341.558594 109.304688 342.066406 109.320312 342.363281 109.648438 C 342.65625 109.972656 342.648438 110.476562 342.324219 110.769531 C 337.710938 115.070312 334.128906 121.773438 333.09375 127.878906 L 335.589844 126.398438 C 337.695312 119.011719 342.042969 112.175781 347.859375 107.128906 C 348.195312 106.839844 348.695312 106.875 348.984375 107.207031 C 349.269531 107.542969 349.238281 108.042969 348.902344 108.328125 C 343.757812 112.796875 339.808594 118.726562 337.640625 125.183594 L 342.011719 122.589844 C 344.054688 115.617188 348.792969 109.320312 355.070312 105.273438 C 355.4375 105.035156 355.933594 105.140625 356.171875 105.511719 C 356.410156 105.886719 356.308594 106.371094 355.933594 106.609375 C 350.484375 110.125 346.253906 115.421875 344.09375 121.359375 L 347.996094 119.046875 C 351.457031 113.519531 355.882812 108.488281 360.480469 104.863281 C 360.820312 104.589844 361.324219 104.648438 361.59375 104.988281 C 361.867188 105.332031 361.8125 105.832031 361.46875 106.101562 C 357.78125 109.011719 354.207031 112.867188 351.175781 117.152344 L 355.007812 114.886719 C 358.230469 111.0625 362.304688 107.507812 367.109375 104.328125 C 367.476562 104.082031 367.96875 104.1875 368.214844 104.550781 C 368.464844 104.917969 368.359375 105.410156 367.992188 105.65625 C 365.042969 107.613281 362.378906 109.703125 360.023438 111.914062 L 372.890625 104.289062 C 373.265625 104.066406 373.761719 104.1875 373.984375 104.566406 C 374.214844 104.949219 374.085938 105.433594 373.710938 105.65625 Z M 373.710938 105.65625 "/></g></g></svg>