<?xml version="1.0" encoding="UTF-8"?><svg xmlns="http://www.w3.org/2000/svg" xmlns:xlink="http://www.w3.org/1999/xlink" width="150pt" zoomAndPan="magnify" viewBox="0 0 150 149.999998" height="149.999998pt" preserveAspectRatio="xMidYMid meet" version="1.2"><defs><g/><clipPath xml:id="clip1" id="clip1"><path d="M 82.558594 24.425781 L 149.695312 24.425781 L 149.695312 81.117188 L 82.558594 81.117188 Z M 82.558594 24.425781 "/></clipPath></defs><g xml:id="surface1" id="surface1"><g style="fill:rgb(0%,0%,0%);fill-opacity:1;"><g transform="translate(0.549201, 74.477487)"><path style="stroke:none;" d="M 4.34375 0 C 6.394531 0 6.855469 -1.488281 6.855469 -2.292969 C 6.855469 -3.058594 6.445312 -4.433594 4.65625 -4.578125 C 5.953125 -4.777344 6.296875 -5.792969 6.296875 -6.265625 C 6.296875 -6.796875 6.082031 -8.042969 4.167969 -8.042969 L 0.644531 -8.042969 L 0.644531 0 Z M 1.277344 -0.707031 C 1.277344 -0.820312 1.277344 -2.363281 1.285156 -4.046875 C 1.285156 -4.289062 1.449219 -4.449219 1.6875 -4.449219 L 3.636719 -4.449219 C 5.246094 -4.449219 6.089844 -3.605469 6.089844 -2.292969 C 6.089844 -0.980469 5.246094 -0.160156 3.636719 -0.160156 L 1.707031 -0.160156 C 1.414062 -0.160156 1.277344 -0.273438 1.277344 -0.707031 Z M 1.285156 -7.496094 C 1.320312 -7.804688 1.457031 -7.882812 1.707031 -7.882812 L 3.683594 -7.882812 C 4.945312 -7.882812 5.632812 -7.191406 5.632812 -6.289062 C 5.632812 -5.382812 4.945312 -4.609375 3.683594 -4.609375 L 1.6875 -4.609375 C 1.449219 -4.609375 1.285156 -4.769531 1.285156 -5.011719 Z M 1.285156 -7.496094 "/></g></g><g style="fill:rgb(0%,0%,0%);fill-opacity:1;"><g transform="translate(11.151004, 74.477487)"><path style="stroke:none;" d="M 1.285156 0 L 1.285156 -2.261719 C 1.285156 -3.878906 3.28125 -4.761719 4.722656 -4.761719 C 5.550781 -4.761719 6.195312 -4.472656 6.195312 -3.878906 L 6.195312 0 L 6.835938 0 L 6.835938 -8.042969 L 6.195312 -8.042969 L 6.195312 -4.527344 C 5.640625 -4.84375 4.9375 -5.003906 4.214844 -5.003906 C 3.121094 -5.003906 1.988281 -4.625 1.285156 -3.8125 L 1.285156 -8.042969 L 0.644531 -8.042969 L 0.644531 0 Z M 1.285156 0 "/></g></g><g style="fill:rgb(0%,0%,0%);fill-opacity:1;"><g transform="translate(22.010159, 74.477487)"><path style="stroke:none;" d="M 4.417969 0.160156 C 6.628906 0.160156 8.4375 -1.511719 8.4375 -4.023438 C 8.4375 -6.53125 6.628906 -8.207031 4.417969 -8.207031 C 2.203125 -8.207031 0.402344 -6.53125 0.402344 -4.023438 C 0.402344 -1.511719 2.203125 0.160156 4.417969 0.160156 Z M 1.046875 -4.023438 C 1.046875 -6.433594 2.558594 -8.042969 4.417969 -8.042969 C 6.273438 -8.042969 7.796875 -6.433594 7.796875 -4.023438 C 7.796875 -1.609375 6.273438 0 4.417969 0 C 2.558594 0 1.046875 -1.609375 1.046875 -4.023438 Z M 1.046875 -4.023438 "/></g></g><g style="fill:rgb(0%,0%,0%);fill-opacity:1;"><g transform="translate(34.22846, 74.477487)"><path style="stroke:none;" d="M 4.417969 0.160156 C 6.628906 0.160156 8.4375 -1.511719 8.4375 -4.023438 C 8.4375 -6.53125 6.628906 -8.207031 4.417969 -8.207031 C 2.203125 -8.207031 0.402344 -6.53125 0.402344 -4.023438 C 0.402344 -1.511719 2.203125 0.160156 4.417969 0.160156 Z M 1.046875 -4.023438 C 1.046875 -6.433594 2.558594 -8.042969 4.417969 -8.042969 C 6.273438 -8.042969 7.796875 -6.433594 7.796875 -4.023438 C 7.796875 -1.609375 6.273438 0 4.417969 0 C 2.558594 0 1.046875 -1.609375 1.046875 -4.023438 Z M 1.046875 -4.023438 "/></g></g><g style="fill:rgb(0%,0%,0%);fill-opacity:1;"><g transform="translate(46.446758, 74.477487)"><path style="stroke:none;" d="M 1.320312 0 L 0.835938 -7.167969 C 0.828125 -7.304688 0.867188 -7.382812 0.925781 -7.382812 C 0.964844 -7.382812 1.023438 -7.34375 1.070312 -7.257812 C 1.191406 -7.054688 3.949219 -1.875 3.949219 -1.875 C 3.949219 -1.875 6.339844 -7 6.476562 -7.257812 C 6.523438 -7.34375 6.570312 -7.382812 6.613281 -7.382812 C 6.667969 -7.382812 6.707031 -7.304688 6.707031 -7.167969 L 6.707031 0 L 7.382812 0 L 7.382812 -8.042969 L 6.644531 -8.042969 L 4.320312 -3.082031 C 4.261719 -2.96875 4.207031 -2.910156 4.144531 -2.910156 C 4.078125 -2.910156 4.015625 -2.96875 3.957031 -3.074219 L 1.304688 -8.042969 L 0.644531 -8.042969 L 0.644531 0 Z M 1.320312 0 "/></g></g><g style="fill:rgb(0%,0%,0%);fill-opacity:1;"><g transform="translate(57.852785, 74.477487)"><path style="stroke:none;" d="M 0.644531 0 L 1.285156 0 L 1.285156 -8.042969 L 0.644531 -8.042969 Z M 0.644531 0 "/></g></g><g style="fill:rgb(0%,0%,0%);fill-opacity:1;"><g transform="translate(60.339021, 77.267054)"><path style="stroke:none;" d="M 5.492188 0 L 5.492188 -0.183594 C 3.917969 -0.183594 3.808594 -1.484375 3.808594 -5.089844 L 3.808594 -8.992188 C 3.808594 -9.851562 4.136719 -10.601562 5.089844 -10.601562 C 6.390625 -10.601562 7.835938 -8.992188 10.070312 -8.992188 C 11.519531 -8.992188 12.414062 -9.925781 12.414062 -11.003906 L 12.230469 -11.003906 C 12.230469 -10.363281 11.574219 -9.960938 10.875 -9.960938 C 9.265625 -9.960938 7.746094 -11.097656 5.933594 -11.097656 C 4.835938 -11.097656 4.027344 -10.511719 3.808594 -10.015625 L 3.808594 -13.21875 C 3.808594 -16.828125 3.917969 -18.128906 5.492188 -18.128906 L 5.492188 -18.3125 L 0.550781 -18.3125 L 0.550781 -18.128906 C 2.125 -18.128906 2.234375 -16.828125 2.234375 -13.21875 L 2.234375 -5.089844 C 2.234375 -1.484375 2.125 -0.183594 0.550781 -0.183594 L 0.550781 0 Z M 11.28125 -18.128906 C 12.855469 -18.128906 12.964844 -16.828125 12.964844 -13.21875 L 12.964844 -5.089844 C 12.964844 -1.484375 12.855469 -0.183594 11.28125 -0.183594 L 11.28125 0 L 16.222656 0 L 16.222656 -0.183594 C 14.648438 -0.183594 14.539062 -1.484375 14.539062 -5.089844 L 14.539062 -13.21875 C 14.539062 -16.828125 14.648438 -18.128906 16.222656 -18.128906 L 16.222656 -18.3125 L 11.28125 -18.3125 Z M 11.28125 -18.128906 "/></g></g><g style="fill:rgb(0%,0%,0%);fill-opacity:1;"><g transform="translate(77.111906, 77.267054)"><path style="stroke:none;" d="M 0.550781 -18.128906 C 2.125 -18.128906 2.234375 -16.828125 2.234375 -13.21875 L 2.234375 -5.089844 C 2.234375 -1.484375 2.125 -0.183594 0.550781 -0.183594 L 0.550781 0 L 5.492188 0 L 5.492188 -0.183594 C 3.917969 -0.183594 3.808594 -1.484375 3.808594 -5.089844 L 3.808594 -13.21875 C 3.808594 -16.828125 3.917969 -18.128906 5.492188 -18.128906 L 5.492188 -18.3125 L 0.550781 -18.3125 Z M 0.550781 -18.128906 "/></g></g><g style="fill:rgb(0%,0%,0%);fill-opacity:1;"><g transform="translate(83.15454, 77.267054)"><path style="stroke:none;" d="M 0.550781 -18.3125 L 0.550781 -18.128906 C 2.125 -18.128906 2.234375 -16.828125 2.234375 -13.21875 L 2.234375 -5.089844 C 2.234375 -1.484375 2.125 -0.183594 0.550781 -0.183594 L 0.550781 0 L 13.640625 0 L 13.640625 -3.019531 L 13.457031 -3.019531 C 13.457031 -0.382812 7.875 -0.183594 6.132812 -0.183594 L 3.808594 -0.183594 L 3.808594 -13.21875 C 3.808594 -16.828125 3.917969 -18.128906 5.492188 -18.128906 L 5.492188 -18.3125 Z M 0.550781 -18.3125 "/></g></g><g style="fill:rgb(0%,0%,0%);fill-opacity:1;"><g transform="translate(97.345573, 77.267054)"><path style="stroke:none;" d="M 0.550781 -18.3125 L 0.550781 -18.128906 C 2.125 -18.128906 2.234375 -16.828125 2.234375 -13.21875 L 2.234375 -5.089844 C 2.234375 -1.484375 2.125 -0.183594 0.550781 -0.183594 L 0.550781 0 L 13.640625 0 L 13.640625 -3.019531 L 13.457031 -3.019531 C 13.457031 -0.382812 7.875 -0.183594 6.132812 -0.183594 L 3.808594 -0.183594 L 3.808594 -13.21875 C 3.808594 -16.828125 3.917969 -18.128906 5.492188 -18.128906 L 5.492188 -18.3125 Z M 0.550781 -18.3125 "/></g></g><g style="fill:rgb(0%,0%,0%);fill-opacity:1;"><g transform="translate(2.58328, 101.94105)"><path style="stroke:none;" d="M 0.640625 -21.324219 L 0.640625 -21.109375 C 2.472656 -21.109375 2.601562 -19.597656 2.601562 -15.394531 L 2.601562 -5.929688 C 2.601562 -1.726562 2.472656 -0.214844 0.640625 -0.214844 L 0.640625 0 L 6.398438 0 L 6.398438 -0.214844 C 4.5625 -0.214844 2.816406 -2.707031 2.816406 -8.914062 L 2.816406 -20.128906 L 16.3125 0.425781 L 16.527344 0.425781 L 16.527344 -15.394531 C 16.527344 -19.597656 16.652344 -21.109375 18.488281 -21.109375 L 18.488281 -21.324219 L 12.730469 -21.324219 L 12.730469 -21.109375 C 14.5625 -21.109375 16.3125 -18.617188 16.3125 -12.410156 L 16.3125 -3.113281 L 4.371094 -21.324219 Z M 0.640625 -21.324219 "/></g></g><g style="fill:rgb(0%,0%,0%);fill-opacity:1;"><g transform="translate(21.707591, 101.94105)"><path style="stroke:none;" d="M 0.640625 -3.730469 C 0.640625 -1.515625 2.046875 0.425781 4.519531 0.425781 C 8.765625 0.425781 11.257812 -3.328125 11.257812 -8.507812 C 11.257812 -9.53125 11.214844 -10.382812 11.132812 -11.066406 L 13.773438 -4.09375 C 14.585938 -1.941406 14.691406 -0.214844 11.683594 -0.214844 L 11.683594 0 L 18.679688 0 L 18.679688 -0.214844 C 17.378906 -0.214844 16.695312 -1.386719 15.757812 -3.730469 L 8.933594 -21.75 L 8.722656 -21.75 C 7.378906 -18.210938 6.589844 -16.097656 5.289062 -12.667969 C 5.074219 -12.113281 5.183594 -11.535156 5.777344 -11.535156 C 6.996094 -11.535156 7.632812 -13.773438 8.65625 -13.773438 C 8.933594 -13.773438 9.167969 -13.605469 9.167969 -13.199219 C 9.167969 -10.980469 0.640625 -8.976562 0.640625 -3.730469 Z M 2.453125 -4.136719 C 2.453125 -9.402344 9.402344 -10.300781 9.402344 -13.15625 C 9.402344 -13.710938 9.105469 -13.988281 8.699219 -13.988281 C 7.570312 -13.988281 6.78125 -11.75 5.800781 -11.75 C 5.457031 -11.75 5.289062 -12.003906 5.566406 -12.75 L 8.019531 -19.277344 L 10.597656 -12.472656 C 10.980469 -11.214844 11.046875 -10.042969 11.046875 -8.464844 C 11.046875 -4.96875 9.359375 -0.597656 5.800781 -0.597656 C 3.710938 -0.597656 2.453125 -2.132812 2.453125 -4.136719 Z M 2.453125 -4.136719 "/></g></g><g style="fill:rgb(0%,0%,0%);fill-opacity:1;"><g transform="translate(40.38418, 101.94105)"><path style="stroke:none;" d="M 0.640625 -21.324219 L 0.640625 -18.445312 L 0.851562 -18.445312 C 0.851562 -18.507812 0.832031 -18.445312 0.832031 -18.53125 C 0.832031 -19.960938 3.519531 -21.109375 7.1875 -21.109375 L 7.1875 -5.929688 C 7.1875 -1.726562 7.058594 -0.214844 5.222656 -0.214844 L 5.222656 0 L 10.789062 0 L 10.789062 -0.214844 C 8.957031 -0.214844 9 -1.726562 9 -5.929688 L 9 -21.109375 C 12.667969 -21.109375 15.351562 -19.960938 15.351562 -18.53125 C 15.351562 -18.445312 15.332031 -18.507812 15.332031 -18.445312 L 15.546875 -18.445312 L 15.546875 -21.324219 Z M 0.640625 -21.324219 "/></g></g><g style="fill:rgb(0%,0%,0%);fill-opacity:1;"><g transform="translate(56.566292, 101.94105)"><path style="stroke:none;" d="M 0.640625 -21.109375 C 2.472656 -21.109375 2.601562 -19.597656 2.601562 -15.394531 L 2.601562 -5.929688 C 2.601562 -1.621094 5.886719 0.425781 9.808594 0.425781 C 13.734375 0.425781 16.929688 -1.664062 16.929688 -5.929688 L 16.929688 -15.394531 C 16.929688 -19.597656 17.058594 -21.109375 18.894531 -21.109375 L 18.894531 -21.324219 L 13.136719 -21.324219 L 13.136719 -21.109375 C 14.96875 -21.109375 15.097656 -19.597656 15.097656 -15.394531 L 15.097656 -5.929688 C 15.097656 -1.8125 12.835938 0.214844 9.808594 0.214844 C 6.78125 0.214844 4.433594 -1.792969 4.433594 -5.929688 L 4.433594 -15.394531 C 4.433594 -19.597656 4.5625 -21.109375 6.398438 -21.109375 L 6.398438 -21.324219 L 0.640625 -21.324219 Z M 0.640625 -21.109375 "/></g></g><g style="fill:rgb(0%,0%,0%);fill-opacity:1;"><g transform="translate(76.095689, 101.94105)"><path style="stroke:none;" d="M 0.640625 0 L 6.375 0 L 6.375 -0.214844 C 4.542969 -0.214844 4.414062 -1.726562 4.414062 -5.929688 L 4.414062 -20.769531 C 5.714844 -21.238281 6.738281 -21.453125 8.316406 -21.453125 C 12.28125 -21.453125 14.777344 -19.277344 14.777344 -15.738281 C 14.777344 -13.179688 13.050781 -10.554688 10.382812 -10.554688 C 8.402344 -10.554688 7.421875 -11.769531 6.164062 -11.769531 C 5.777344 -11.769531 5.417969 -11.558594 5.417969 -11.046875 C 5.417969 -9.59375 7.675781 -9.511719 9.746094 -6.398438 C 13.113281 -1.34375 13.710938 0 14.691406 0 L 17.953125 0 L 17.953125 -0.214844 C 15.523438 -0.214844 13.539062 -4.007812 11.855469 -6.632812 C 10.128906 -9.320312 5.628906 -9.617188 5.628906 -11.003906 C 5.628906 -11.492188 5.992188 -11.558594 6.246094 -11.558594 C 7.144531 -11.558594 8.507812 -10.191406 10.511719 -10.191406 C 14.222656 -10.191406 16.609375 -12.835938 16.609375 -15.757812 C 16.609375 -19.234375 14.074219 -21.75 9.53125 -21.75 C 7.058594 -21.75 5.542969 -21.324219 3.199219 -21.324219 L 0.640625 -21.324219 L 0.640625 -21.109375 C 2.472656 -21.109375 2.601562 -19.597656 2.601562 -15.394531 L 2.601562 -5.929688 C 2.601562 -1.726562 2.472656 -0.214844 0.640625 -0.214844 Z M 0.640625 0 "/></g></g><g style="fill:rgb(0%,0%,0%);fill-opacity:1;"><g transform="translate(94.686992, 101.94105)"><path style="stroke:none;" d="M 0.640625 -3.730469 C 0.640625 -1.515625 2.046875 0.425781 4.519531 0.425781 C 8.765625 0.425781 11.257812 -3.328125 11.257812 -8.507812 C 11.257812 -9.53125 11.214844 -10.382812 11.132812 -11.066406 L 13.773438 -4.09375 C 14.585938 -1.941406 14.691406 -0.214844 11.683594 -0.214844 L 11.683594 0 L 18.679688 0 L 18.679688 -0.214844 C 17.378906 -0.214844 16.695312 -1.386719 15.757812 -3.730469 L 8.933594 -21.75 L 8.722656 -21.75 C 7.378906 -18.210938 6.589844 -16.097656 5.289062 -12.667969 C 5.074219 -12.113281 5.183594 -11.535156 5.777344 -11.535156 C 6.996094 -11.535156 7.632812 -13.773438 8.65625 -13.773438 C 8.933594 -13.773438 9.167969 -13.605469 9.167969 -13.199219 C 9.167969 -10.980469 0.640625 -8.976562 0.640625 -3.730469 Z M 2.453125 -4.136719 C 2.453125 -9.402344 9.402344 -10.300781 9.402344 -13.15625 C 9.402344 -13.710938 9.105469 -13.988281 8.699219 -13.988281 C 7.570312 -13.988281 6.78125 -11.75 5.800781 -11.75 C 5.457031 -11.75 5.289062 -12.003906 5.566406 -12.75 L 8.019531 -19.277344 L 10.597656 -12.472656 C 10.980469 -11.214844 11.046875 -10.042969 11.046875 -8.464844 C 11.046875 -4.96875 9.359375 -0.597656 5.800781 -0.597656 C 3.710938 -0.597656 2.453125 -2.132812 2.453125 -4.136719 Z M 2.453125 -4.136719 "/></g></g><g style="fill:rgb(0%,0%,0%);fill-opacity:1;"><g transform="translate(113.363585, 101.94105)"><path style="stroke:none;" d="M 0.640625 -21.324219 L 0.640625 -21.109375 C 2.472656 -21.109375 2.601562 -19.597656 2.601562 -15.394531 L 2.601562 -5.929688 C 2.601562 -1.726562 2.472656 -0.214844 0.640625 -0.214844 L 0.640625 0 L 15.886719 0 L 15.886719 -3.519531 L 15.671875 -3.519531 C 15.671875 -0.449219 9.167969 -0.214844 7.144531 -0.214844 L 4.433594 -0.214844 L 4.433594 -15.394531 C 4.433594 -19.597656 4.5625 -21.109375 6.398438 -21.109375 L 6.398438 -21.324219 Z M 0.640625 -21.324219 "/></g></g><g style="fill:rgb(0%,0%,0%);fill-opacity:1;"><g transform="translate(129.88682, 101.94105)"><path style="stroke:none;" d="M 1.28125 -16.207031 C 1.28125 -9.210938 15.011719 -11.023438 15.011719 -4.605469 C 15.011719 -2.238281 12.558594 0.0429688 9.445312 0.0429688 C 4.371094 0.0429688 1.578125 -5.03125 1.578125 -5.03125 L 1.363281 -5.03125 L 1.363281 -2.175781 C 2.941406 -1.003906 5.4375 0.425781 8.253906 0.425781 C 13.179688 0.425781 16.25 -2.515625 16.25 -5.480469 C 16.25 -12.945312 2.773438 -10.875 2.773438 -16.71875 C 2.773438 -19.085938 4.945312 -21.496094 8.914062 -21.496094 C 13.476562 -21.496094 14.777344 -17.910156 14.777344 -17.910156 L 14.992188 -17.910156 L 14.992188 -20.769531 C 13.347656 -21.324219 11.535156 -21.75 8.914062 -21.75 C 3.988281 -21.75 1.28125 -19.171875 1.28125 -16.207031 Z M 1.28125 -16.207031 "/></g></g><g clip-rule="nonzero" clip-path="url(#clip1)"><path style=" stroke:none;fill-rule:nonzero;fill:rgb(0%,0%,0%);fill-opacity:1;" d="M 149.484375 42.261719 L 144.339844 45.3125 C 145.566406 44.910156 146.8125 44.378906 148.070312 43.714844 C 148.226562 43.632812 148.417969 43.695312 148.5 43.851562 C 148.582031 44.003906 148.523438 44.195312 148.363281 44.277344 C 146.324219 45.355469 144.292969 46.101562 142.328125 46.5 L 140.796875 47.410156 C 142.890625 47.167969 144.929688 46.652344 146.65625 45.914062 C 146.820312 45.84375 147.007812 45.921875 147.074219 46.082031 C 147.144531 46.246094 147.070312 46.429688 146.90625 46.5 C 144.753906 47.417969 142.132812 48.007812 139.523438 48.160156 L 137.964844 49.085938 C 140.46875 49.460938 143.144531 48.996094 145.425781 47.757812 C 145.578125 47.671875 145.773438 47.734375 145.859375 47.886719 C 145.941406 48.042969 145.886719 48.230469 145.734375 48.316406 C 143.871094 49.328125 141.757812 49.855469 139.671875 49.855469 C 138.8125 49.855469 137.964844 49.761719 137.132812 49.582031 L 135.386719 50.621094 C 138.078125 51.09375 140.921875 50.84375 143.480469 49.894531 C 143.644531 49.835938 143.828125 49.917969 143.890625 50.082031 C 143.953125 50.25 143.871094 50.429688 143.703125 50.492188 C 141.914062 51.15625 139.992188 51.492188 138.070312 51.492188 C 136.890625 51.492188 135.714844 51.359375 134.566406 51.105469 L 133.566406 51.703125 C 135.917969 52.503906 138.964844 52.53125 141.363281 51.738281 C 141.535156 51.683594 141.710938 51.773438 141.765625 51.9375 C 141.820312 52.101562 141.730469 52.285156 141.566406 52.335938 C 140.304688 52.753906 138.90625 52.960938 137.511719 52.960938 C 135.875 52.960938 134.253906 52.675781 132.863281 52.113281 L 131.632812 52.84375 C 133.988281 53.980469 136.742188 54.191406 139.246094 53.410156 C 139.414062 53.355469 139.59375 53.449219 139.644531 53.621094 C 139.699219 53.789062 139.601562 53.964844 139.433594 54.015625 C 138.371094 54.347656 137.265625 54.511719 136.164062 54.511719 C 134.394531 54.511719 132.632812 54.09375 131.054688 53.269531 C 131.027344 53.257812 131.011719 53.238281 130.992188 53.21875 L 129.945312 53.839844 C 132.144531 55.03125 134.773438 55.378906 137.210938 54.792969 C 137.382812 54.75 137.554688 54.855469 137.597656 55.027344 C 137.636719 55.199219 137.53125 55.371094 137.359375 55.414062 C 136.535156 55.613281 135.683594 55.710938 134.839844 55.710938 C 132.925781 55.710938 131.011719 55.210938 129.355469 54.246094 C 129.339844 54.234375 129.332031 54.222656 129.320312 54.214844 L 127.988281 55.003906 C 130.652344 56.40625 133.210938 56.210938 134.460938 56.113281 L 134.578125 56.101562 C 134.757812 56.089844 134.90625 56.21875 134.917969 56.394531 C 134.933594 56.570312 134.800781 56.722656 134.625 56.734375 L 134.511719 56.746094 C 134.109375 56.777344 133.578125 56.820312 132.960938 56.820312 C 131.46875 56.820312 129.449219 56.578125 127.375 55.398438 C 127.367188 55.390625 127.359375 55.382812 127.351562 55.378906 L 126.382812 55.953125 C 128.171875 56.769531 130.21875 57.539062 132.316406 57.246094 C 132.488281 57.21875 132.648438 57.339844 132.675781 57.515625 C 132.703125 57.691406 132.578125 57.847656 132.40625 57.875 C 132.058594 57.921875 131.714844 57.945312 131.378906 57.945312 C 129.332031 57.945312 127.40625 57.132812 125.71875 56.347656 L 116.433594 61.851562 L 116.433594 80.777344 C 116.433594 80.953125 116.289062 81.097656 116.117188 81.097656 C 115.941406 81.097656 115.796875 80.953125 115.796875 80.777344 L 115.796875 61.851562 L 106.511719 56.347656 C 104.824219 57.136719 102.898438 57.945312 100.851562 57.945312 C 100.515625 57.945312 100.171875 57.921875 99.824219 57.875 C 99.652344 57.847656 99.527344 57.691406 99.554688 57.515625 C 99.582031 57.339844 99.742188 57.21875 99.914062 57.246094 C 102.011719 57.539062 104.058594 56.769531 105.847656 55.953125 L 104.878906 55.378906 C 104.867188 55.382812 104.863281 55.394531 104.855469 55.398438 C 102.78125 56.578125 100.761719 56.820312 99.269531 56.820312 C 98.648438 56.820312 98.117188 56.777344 97.71875 56.746094 L 97.605469 56.734375 C 97.429688 56.722656 97.300781 56.570312 97.3125 56.394531 C 97.324219 56.21875 97.476562 56.089844 97.652344 56.101562 L 97.769531 56.113281 C 99.023438 56.210938 101.582031 56.40625 104.242188 55.003906 L 102.910156 54.214844 C 102.898438 54.222656 102.890625 54.234375 102.875 54.246094 C 101.21875 55.210938 99.304688 55.710938 97.390625 55.710938 C 96.542969 55.710938 95.695312 55.613281 94.871094 55.414062 C 94.699219 55.371094 94.59375 55.199219 94.632812 55.027344 C 94.675781 54.855469 94.847656 54.75 95.019531 54.792969 C 97.457031 55.382812 100.085938 55.03125 102.285156 53.839844 L 101.238281 53.21875 C 101.21875 53.238281 101.203125 53.257812 101.175781 53.269531 C 99.597656 54.09375 97.835938 54.511719 96.066406 54.511719 C 94.964844 54.511719 93.859375 54.347656 92.796875 54.015625 C 92.628906 53.960938 92.535156 53.785156 92.585938 53.621094 C 92.636719 53.453125 92.820312 53.359375 92.984375 53.410156 C 95.488281 54.191406 98.242188 53.980469 100.597656 52.84375 L 99.367188 52.113281 C 97.976562 52.675781 96.355469 52.960938 94.71875 52.960938 C 93.324219 52.960938 91.921875 52.753906 90.664062 52.335938 C 90.5 52.285156 90.40625 52.101562 90.464844 51.9375 C 90.519531 51.773438 90.699219 51.683594 90.867188 51.738281 C 93.265625 52.53125 96.3125 52.503906 98.664062 51.703125 L 97.664062 51.105469 C 96.515625 51.363281 95.339844 51.492188 94.160156 51.492188 C 92.238281 51.492188 90.316406 51.15625 88.527344 50.492188 C 88.359375 50.433594 88.277344 50.25 88.339844 50.082031 C 88.398438 49.917969 88.585938 49.835938 88.75 49.894531 C 91.308594 50.84375 94.152344 51.09375 96.847656 50.621094 L 95.097656 49.582031 C 94.265625 49.761719 93.414062 49.855469 92.558594 49.855469 C 90.472656 49.855469 88.359375 49.328125 86.496094 48.316406 C 86.339844 48.234375 86.289062 48.042969 86.371094 47.886719 C 86.453125 47.730469 86.648438 47.671875 86.804688 47.757812 C 89.085938 48.996094 91.757812 49.460938 94.265625 49.085938 L 92.707031 48.160156 C 90.097656 48.007812 87.476562 47.417969 85.324219 46.5 C 85.160156 46.429688 85.085938 46.246094 85.15625 46.082031 C 85.226562 45.921875 85.410156 45.84375 85.574219 45.914062 C 87.300781 46.652344 89.34375 47.164062 91.433594 47.410156 L 89.902344 46.5 C 87.941406 46.105469 85.90625 45.355469 83.867188 44.28125 C 83.710938 44.199219 83.652344 44.007812 83.734375 43.851562 C 83.816406 43.695312 84.007812 43.636719 84.164062 43.71875 C 85.417969 44.378906 86.667969 44.910156 87.894531 45.316406 L 82.75 42.261719 C 82.597656 42.171875 82.546875 41.976562 82.636719 41.828125 C 82.726562 41.675781 82.921875 41.625 83.074219 41.714844 L 88.222656 44.765625 C 87.28125 43.882812 86.214844 43.046875 85.035156 42.261719 C 84.886719 42.164062 84.84375 41.96875 84.945312 41.820312 C 85.042969 41.675781 85.242188 41.632812 85.386719 41.730469 C 87.3125 43.003906 88.9375 44.425781 90.226562 45.953125 L 91.757812 46.859375 C 90.546875 45.148438 89.117188 43.605469 87.644531 42.441406 C 87.507812 42.332031 87.480469 42.132812 87.59375 41.996094 C 87.699219 41.859375 87.902344 41.832031 88.039062 41.945312 C 89.875 43.394531 91.648438 45.40625 93.03125 47.617188 L 94.59375 48.542969 C 93.726562 46.167969 92.039062 44.050781 89.859375 42.644531 C 89.710938 42.550781 89.667969 42.351562 89.761719 42.207031 C 89.859375 42.058594 90.054688 42.015625 90.203125 42.109375 C 92.714844 43.730469 94.609375 46.246094 95.425781 49.035156 L 97.175781 50.074219 C 96.304688 47.488281 94.726562 45.117188 92.667969 43.332031 C 92.535156 43.214844 92.523438 43.015625 92.636719 42.882812 C 92.75 42.75 92.953125 42.738281 93.085938 42.851562 C 95.414062 44.871094 97.152344 47.601562 97.996094 50.558594 L 98.992188 51.152344 C 98.578125 48.710938 97.144531 46.027344 95.300781 44.308594 C 95.171875 44.1875 95.167969 43.988281 95.285156 43.859375 C 95.40625 43.730469 95.609375 43.726562 95.734375 43.84375 C 97.839844 45.804688 99.382812 48.824219 99.695312 51.566406 L 100.925781 52.296875 C 100.804688 49.6875 99.671875 47.175781 97.789062 45.355469 C 97.664062 45.234375 97.660156 45.03125 97.785156 44.910156 C 97.90625 44.78125 98.109375 44.777344 98.234375 44.902344 C 100.3125 46.910156 101.53125 49.710938 101.578125 52.59375 C 101.578125 52.625 101.566406 52.648438 101.5625 52.675781 L 102.609375 53.292969 C 102.609375 50.796875 101.660156 48.332031 99.980469 46.476562 C 99.859375 46.347656 99.871094 46.144531 100 46.027344 C 100.132812 45.910156 100.332031 45.921875 100.453125 46.050781 C 102.3125 48.097656 103.328125 50.859375 103.242188 53.621094 C 103.242188 53.636719 103.238281 53.652344 103.234375 53.667969 L 104.5625 54.457031 C 104.527344 51.453125 103.136719 49.304688 102.449219 48.253906 L 102.386719 48.160156 C 102.289062 48.011719 102.332031 47.816406 102.476562 47.71875 C 102.625 47.625 102.820312 47.664062 102.917969 47.8125 L 102.980469 47.90625 C 103.726562 49.050781 105.277344 51.425781 105.203125 54.800781 C 105.203125 54.808594 105.195312 54.816406 105.195312 54.828125 L 106.167969 55.402344 C 106.03125 53.445312 105.730469 51.289062 104.472656 49.59375 C 104.367188 49.453125 104.394531 49.253906 104.539062 49.148438 C 104.679688 49.042969 104.878906 49.070312 104.984375 49.214844 C 106.445312 51.171875 106.707031 53.636719 106.832031 55.796875 L 115.496094 60.929688 L 111.746094 50.769531 C 109.640625 50.25 107.257812 49.542969 105.59375 47.753906 C 105.46875 47.628906 105.480469 47.425781 105.609375 47.304688 C 105.738281 47.1875 105.941406 47.195312 106.058594 47.324219 C 107.5 48.867188 109.574219 49.554688 111.480469 50.042969 L 111.089844 48.992188 C 111.082031 48.992188 111.066406 48.992188 111.058594 48.988281 C 107.714844 48.445312 105.65625 46.492188 104.664062 45.554688 L 104.582031 45.476562 C 104.453125 45.355469 104.445312 45.152344 104.566406 45.027344 C 104.6875 44.898438 104.890625 44.894531 105.015625 45.011719 L 105.101562 45.09375 C 106.011719 45.953125 107.875 47.714844 110.832031 48.296875 L 110.296875 46.859375 C 110.28125 46.859375 110.265625 46.859375 110.25 46.855469 C 107.507812 46.433594 104.976562 44.929688 103.292969 42.734375 C 103.1875 42.59375 103.214844 42.394531 103.355469 42.289062 C 103.496094 42.179688 103.695312 42.207031 103.800781 42.347656 C 105.320312 44.335938 107.585938 45.714844 110.046875 46.171875 L 109.628906 45.035156 C 109.621094 45.035156 109.617188 45.039062 109.609375 45.039062 C 109.585938 45.039062 109.566406 45.035156 109.546875 45.03125 C 106.707031 44.460938 104.164062 42.753906 102.566406 40.351562 C 102.46875 40.207031 102.507812 40.007812 102.65625 39.910156 C 102.804688 39.8125 103 39.851562 103.101562 40 C 104.546875 42.175781 106.820312 43.746094 109.371094 44.339844 L 108.875 43 C 106.222656 42.191406 103.53125 40.128906 101.976562 37.707031 C 101.882812 37.5625 101.925781 37.363281 102.074219 37.269531 C 102.222656 37.175781 102.417969 37.21875 102.511719 37.363281 C 103.871094 39.488281 106.253906 41.382812 108.589844 42.234375 L 108.1875 41.144531 C 105.425781 39.777344 103.046875 37.578125 101.480469 34.929688 C 101.394531 34.777344 101.445312 34.582031 101.59375 34.492188 C 101.746094 34.40625 101.941406 34.457031 102.03125 34.605469 C 103.414062 36.949219 105.46875 38.925781 107.855469 40.253906 L 107.160156 38.351562 C 104.5625 37.039062 102.421875 34.722656 101.28125 31.96875 C 101.214844 31.804688 101.289062 31.617188 101.453125 31.550781 C 101.617188 31.484375 101.804688 31.5625 101.871094 31.722656 C 102.859375 34.113281 104.640625 36.160156 106.828125 37.441406 L 106.203125 35.742188 C 104.273438 33.980469 102.613281 31.878906 101.515625 29.816406 C 101.433594 29.660156 101.496094 29.46875 101.652344 29.386719 C 101.808594 29.304688 102 29.363281 102.082031 29.519531 C 102.960938 31.175781 104.21875 32.859375 105.691406 34.359375 L 105.074219 32.695312 C 103.796875 31.152344 102.695312 29.296875 101.792969 27.179688 C 101.722656 27.015625 101.796875 26.828125 101.960938 26.761719 C 102.125 26.691406 102.3125 26.769531 102.378906 26.929688 C 102.933594 28.230469 103.566406 29.425781 104.265625 30.511719 L 102.195312 24.910156 C 102.136719 24.746094 102.21875 24.566406 102.386719 24.503906 C 102.550781 24.445312 102.734375 24.53125 102.792969 24.691406 L 104.859375 30.296875 C 104.6875 29.015625 104.390625 27.699219 103.96875 26.347656 C 103.917969 26.179688 104.007812 26.003906 104.179688 25.953125 C 104.347656 25.902344 104.527344 25.992188 104.578125 26.160156 C 105.265625 28.359375 105.628906 30.484375 105.667969 32.480469 L 106.285156 34.148438 C 106.429688 32.050781 106.292969 29.957031 105.882812 28.128906 C 105.84375 27.957031 105.953125 27.789062 106.125 27.75 C 106.296875 27.714844 106.464844 27.820312 106.503906 27.992188 C 107.015625 30.269531 107.117188 32.945312 106.792969 35.535156 L 107.421875 37.230469 C 108.25 34.84375 108.273438 32.136719 107.472656 29.675781 C 107.417969 29.507812 107.507812 29.328125 107.675781 29.273438 C 107.839844 29.21875 108.023438 29.3125 108.078125 29.476562 C 109.003906 32.3125 108.882812 35.460938 107.753906 38.136719 L 108.453125 40.039062 C 109.410156 37.484375 109.6875 34.65625 109.214844 31.976562 C 109.1875 31.804688 109.304688 31.636719 109.476562 31.605469 C 109.648438 31.578125 109.8125 31.691406 109.84375 31.863281 C 110.375 34.890625 109.996094 38.101562 108.78125 40.929688 L 109.183594 42.019531 C 110.40625 39.863281 110.992188 36.878906 110.644531 34.386719 C 110.621094 34.210938 110.746094 34.050781 110.917969 34.027344 C 111.09375 33.996094 111.253906 34.125 111.277344 34.296875 C 111.671875 37.140625 110.957031 40.453125 109.46875 42.785156 L 109.964844 44.125 C 111.515625 42.019531 112.230469 39.359375 111.914062 36.765625 C 111.890625 36.59375 112.015625 36.433594 112.191406 36.414062 C 112.367188 36.394531 112.527344 36.519531 112.542969 36.691406 C 112.890625 39.554688 112.0625 42.496094 110.277344 44.761719 C 110.261719 44.785156 110.238281 44.796875 110.214844 44.8125 L 110.636719 45.953125 C 112.210938 44.015625 113.039062 41.503906 112.90625 39.007812 C 112.894531 38.835938 113.03125 38.683594 113.207031 38.675781 C 113.378906 38.667969 113.53125 38.800781 113.539062 38.976562 C 113.691406 41.738281 112.734375 44.515625 110.921875 46.609375 C 110.914062 46.621094 110.898438 46.628906 110.886719 46.640625 L 111.421875 48.089844 C 113.292969 45.734375 113.570312 43.191406 113.699219 41.949219 L 113.710938 41.832031 C 113.730469 41.660156 113.886719 41.535156 114.0625 41.550781 C 114.238281 41.570312 114.367188 41.726562 114.347656 41.898438 L 114.335938 42.015625 C 114.191406 43.371094 113.890625 46.1875 111.703125 48.761719 C 111.695312 48.769531 111.6875 48.773438 111.675781 48.777344 L 112.066406 49.835938 C 113.199219 48.230469 114.328125 46.363281 114.425781 44.257812 C 114.429688 44.082031 114.585938 43.941406 114.757812 43.953125 C 114.929688 43.957031 115.070312 44.105469 115.0625 44.28125 C 114.953125 46.722656 113.601562 48.796875 112.335938 50.554688 L 116.105469 60.769531 L 119.878906 50.554688 C 118.613281 48.796875 117.257812 46.71875 117.148438 44.28125 C 117.144531 44.105469 117.277344 43.957031 117.457031 43.953125 C 117.628906 43.941406 117.78125 44.078125 117.789062 44.257812 C 117.878906 46.363281 119.011719 48.230469 120.144531 49.835938 L 120.535156 48.777344 C 120.527344 48.773438 120.515625 48.769531 120.507812 48.761719 C 118.316406 46.1875 118.019531 43.371094 117.875 42.015625 L 117.863281 41.898438 C 117.84375 41.726562 117.972656 41.570312 118.148438 41.550781 C 118.324219 41.53125 118.480469 41.660156 118.5 41.832031 L 118.511719 41.949219 C 118.640625 43.195312 118.917969 45.734375 120.789062 48.089844 L 121.324219 46.640625 C 121.3125 46.628906 121.296875 46.621094 121.289062 46.609375 C 119.476562 44.515625 118.519531 41.738281 118.671875 38.976562 C 118.679688 38.800781 118.832031 38.671875 119.007812 38.675781 C 119.183594 38.683594 119.316406 38.835938 119.304688 39.007812 C 119.171875 41.503906 119.996094 44.019531 121.574219 45.953125 L 121.996094 44.8125 C 121.972656 44.796875 121.953125 44.785156 121.933594 44.761719 C 120.144531 42.496094 119.320312 39.554688 119.667969 36.691406 C 119.6875 36.515625 119.84375 36.390625 120.019531 36.414062 C 120.195312 36.4375 120.320312 36.59375 120.296875 36.765625 C 119.984375 39.363281 120.699219 42.023438 122.25 44.125 L 122.742188 42.785156 C 121.25 40.457031 120.539062 37.144531 120.933594 34.296875 C 120.957031 34.121094 121.117188 33.996094 121.292969 34.027344 C 121.46875 34.050781 121.589844 34.210938 121.566406 34.386719 C 121.21875 36.882812 121.804688 39.863281 123.027344 42.019531 L 123.429688 40.929688 C 122.214844 38.105469 121.835938 34.890625 122.367188 31.863281 C 122.398438 31.691406 122.5625 31.578125 122.734375 31.605469 C 122.910156 31.632812 123.027344 31.800781 122.996094 31.976562 C 122.527344 34.65625 122.800781 37.484375 123.757812 40.039062 L 124.460938 38.136719 C 123.328125 35.460938 123.207031 32.3125 124.132812 29.476562 C 124.1875 29.3125 124.371094 29.21875 124.535156 29.273438 C 124.703125 29.328125 124.792969 29.511719 124.738281 29.675781 C 123.9375 32.136719 123.964844 34.84375 124.792969 37.230469 L 125.417969 35.535156 C 125.09375 32.949219 125.195312 30.273438 125.707031 27.992188 C 125.746094 27.820312 125.917969 27.714844 126.085938 27.75 C 126.257812 27.789062 126.367188 27.960938 126.328125 28.128906 C 125.917969 29.957031 125.785156 32.054688 125.925781 34.148438 L 126.542969 32.480469 C 126.578125 30.484375 126.945312 28.355469 127.632812 26.160156 C 127.6875 25.992188 127.867188 25.902344 128.03125 25.953125 C 128.203125 26.003906 128.292969 26.179688 128.242188 26.347656 C 127.820312 27.699219 127.523438 29.015625 127.351562 30.296875 L 129.417969 24.691406 C 129.480469 24.527344 129.664062 24.445312 129.828125 24.503906 C 129.992188 24.566406 130.074219 24.75 130.015625 24.910156 L 127.945312 30.511719 C 128.644531 29.429688 129.277344 28.230469 129.832031 26.929688 C 129.902344 26.769531 130.089844 26.691406 130.25 26.761719 C 130.414062 26.832031 130.488281 27.015625 130.417969 27.179688 C 129.515625 29.296875 128.414062 31.152344 127.140625 32.695312 L 126.523438 34.359375 C 127.996094 32.855469 129.253906 31.175781 130.132812 29.519531 C 130.214844 29.363281 130.40625 29.304688 130.5625 29.386719 C 130.71875 29.46875 130.78125 29.660156 130.699219 29.816406 C 129.601562 31.878906 127.945312 33.980469 126.011719 35.742188 L 125.386719 37.441406 C 127.570312 36.160156 129.355469 34.113281 130.34375 31.722656 C 130.410156 31.5625 130.597656 31.484375 130.761719 31.550781 C 130.925781 31.617188 131 31.804688 130.933594 31.96875 C 129.792969 34.722656 127.65625 37.042969 125.054688 38.351562 L 124.351562 40.253906 C 126.742188 38.929688 128.792969 36.949219 130.175781 34.605469 C 130.265625 34.457031 130.460938 34.40625 130.613281 34.492188 C 130.769531 34.582031 130.816406 34.777344 130.726562 34.929688 C 129.160156 37.574219 126.78125 39.777344 124.019531 41.144531 L 123.617188 42.234375 C 125.949219 41.378906 128.332031 39.488281 129.695312 37.363281 C 129.792969 37.21875 129.988281 37.175781 130.136719 37.269531 C 130.285156 37.363281 130.328125 37.5625 130.230469 37.707031 C 128.679688 40.128906 125.984375 42.191406 123.332031 43 L 122.839844 44.339844 C 125.386719 43.746094 127.660156 42.175781 129.109375 40 C 129.203125 39.851562 129.402344 39.8125 129.550781 39.910156 C 129.699219 40.003906 129.738281 40.203125 129.640625 40.351562 C 128.042969 42.753906 125.5 44.460938 122.664062 45.03125 C 122.640625 45.035156 122.621094 45.039062 122.597656 45.039062 C 122.59375 45.039062 122.585938 45.035156 122.578125 45.035156 L 122.160156 46.171875 C 124.625 45.714844 126.886719 44.332031 128.40625 42.347656 C 128.511719 42.207031 128.710938 42.179688 128.851562 42.289062 C 128.992188 42.394531 129.019531 42.59375 128.914062 42.734375 C 127.230469 44.929688 124.695312 46.433594 121.957031 46.855469 C 121.941406 46.859375 121.925781 46.859375 121.910156 46.859375 L 121.378906 48.296875 C 124.332031 47.714844 126.195312 45.957031 127.109375 45.09375 L 127.191406 45.011719 C 127.316406 44.894531 127.519531 44.898438 127.640625 45.027344 C 127.761719 45.152344 127.753906 45.355469 127.628906 45.476562 L 127.542969 45.554688 C 126.554688 46.492188 124.496094 48.445312 121.152344 48.988281 C 121.140625 48.992188 121.128906 48.992188 121.117188 48.992188 L 120.730469 50.042969 C 122.632812 49.554688 124.710938 48.863281 126.152344 47.324219 C 126.273438 47.195312 126.472656 47.1875 126.601562 47.304688 C 126.726562 47.425781 126.738281 47.628906 126.617188 47.753906 C 124.949219 49.542969 122.566406 50.25 120.460938 50.769531 L 116.734375 60.929688 L 125.398438 55.796875 C 125.523438 53.636719 125.785156 51.171875 127.246094 49.214844 C 127.351562 49.074219 127.546875 49.042969 127.691406 49.148438 C 127.832031 49.253906 127.863281 49.453125 127.757812 49.59375 C 126.5 51.289062 126.199219 53.445312 126.0625 55.402344 L 127.035156 54.828125 C 127.035156 54.816406 127.027344 54.808594 127.027344 54.800781 C 126.953125 51.425781 128.503906 49.050781 129.25 47.90625 L 129.3125 47.8125 C 129.410156 47.664062 129.605469 47.621094 129.753906 47.71875 C 129.898438 47.816406 129.945312 48.011719 129.84375 48.160156 L 129.78125 48.253906 C 129.09375 49.304688 127.703125 51.453125 127.667969 54.457031 L 128.996094 53.667969 C 128.992188 53.652344 128.988281 53.636719 128.988281 53.621094 C 128.902344 50.859375 129.921875 48.097656 131.777344 46.050781 C 131.898438 45.921875 132.097656 45.910156 132.230469 46.027344 C 132.359375 46.144531 132.371094 46.347656 132.25 46.476562 C 130.570312 48.332031 129.621094 50.796875 129.621094 53.292969 L 130.667969 52.675781 C 130.664062 52.648438 130.652344 52.625 130.652344 52.59375 C 130.699219 49.710938 131.917969 46.910156 133.996094 44.902344 C 134.125 44.78125 134.324219 44.785156 134.445312 44.910156 C 134.566406 45.035156 134.566406 45.234375 134.441406 45.355469 C 132.558594 47.171875 131.425781 49.6875 131.304688 52.296875 L 132.535156 51.566406 C 132.847656 48.824219 134.390625 45.804688 136.496094 43.84375 C 136.621094 43.722656 136.828125 43.730469 136.945312 43.859375 C 137.0625 43.988281 137.058594 44.191406 136.929688 44.308594 C 135.085938 46.027344 133.652344 48.710938 133.238281 51.152344 L 134.234375 50.558594 C 135.078125 47.605469 136.816406 44.871094 139.144531 42.851562 C 139.277344 42.738281 139.480469 42.75 139.59375 42.882812 C 139.707031 43.015625 139.695312 43.214844 139.5625 43.332031 C 137.503906 45.117188 135.925781 47.492188 135.054688 50.074219 L 136.804688 49.035156 C 137.621094 46.246094 139.515625 43.730469 142.027344 42.109375 C 142.175781 42.015625 142.371094 42.054688 142.46875 42.207031 C 142.5625 42.355469 142.523438 42.550781 142.371094 42.644531 C 140.195312 44.050781 138.503906 46.167969 137.636719 48.542969 L 139.199219 47.617188 C 140.582031 45.40625 142.355469 43.394531 144.191406 41.945312 C 144.328125 41.835938 144.53125 41.859375 144.636719 41.996094 C 144.746094 42.132812 144.722656 42.332031 144.585938 42.441406 C 143.113281 43.605469 141.683594 45.148438 140.472656 46.859375 L 142.003906 45.953125 C 143.292969 44.425781 144.921875 43.003906 146.84375 41.730469 C 146.988281 41.632812 147.1875 41.675781 147.285156 41.820312 C 147.386719 41.96875 147.34375 42.164062 147.199219 42.261719 C 146.015625 43.046875 144.949219 43.882812 144.007812 44.765625 L 149.15625 41.714844 C 149.304688 41.625 149.503906 41.675781 149.59375 41.828125 C 149.6875 41.980469 149.636719 42.171875 149.484375 42.261719 Z M 149.484375 42.261719 "/></g></g></svg>